<svg width="68" height="71" xmlns="http://www.w3.org/2000/svg" xmlns:xlink="http://www.w3.org/1999/xlink" xmlns:svgjs="http://svgjs.com/svgjs" viewBox="989 419 68 71"><svg width="59" height="56" xmlns="http://www.w3.org/2000/svg" xmlns:xlink="http://www.w3.org/1999/xlink" xmlns:svgjs="http://svgjs.com/svgjs" viewBox="0.16 0 58.68 56" fill="none" x="994" y="432"><svg xmlns="http://www.w3.org/2000/svg" xmlns:xlink="http://www.w3.org/1999/xlink" width="59" height="56" viewBox="1.046 1.86 57.629 54.997"><path paint-order="stroke fill markers" d="M58.674 56.857L29.86 1.86 1.046 56.857h57.628z"/></svg></svg><svg width="68" height="67" xmlns="http://www.w3.org/2000/svg" xmlns:xlink="http://www.w3.org/1999/xlink" xmlns:svgjs="http://svgjs.com/svgjs" viewBox="0.212 0 67.577 67" fill="none" x="989" y="419"><svg xmlns="http://www.w3.org/2000/svg" xmlns:xlink="http://www.w3.org/1999/xlink" width="68" height="67" viewBox="2 1 67 66.428"><path paint-order="stroke fill markers" d="M35.5 1C54.002 1 69 15.87 69 34.214S54.002 67.43 35.5 67.43C16.998 67.429 2 52.558 2 34.214 2 15.871 16.998 1 35.5 1z"/></svg></svg><svg width="8" height="8" xmlns="http://www.w3.org/2000/svg" xmlns:xlink="http://www.w3.org/1999/xlink" xmlns:svgjs="http://svgjs.com/svgjs" viewBox="0 0.034 8 7.932" fill="#fff" x="1046" y="482"><svg xmlns="http://www.w3.org/2000/svg" width="8" height="8" viewBox="1.914 1.857 7.204 7.143"><path paint-order="stroke fill markers" fill-rule="evenodd" d="M5.516 1.857c1.99 0 3.602 1.6 3.602 3.572s-1.612 3.57-3.602 3.57c-1.99 0-3.602-1.598-3.602-3.57 0-1.973 1.613-3.572 3.602-3.572z"/></svg></svg></svg>